<?xml version="1.0" encoding="UTF-8"?>
<svg width="442px" height="84px" viewBox="0 0 442 84" version="1.1" xmlns="http://www.w3.org/2000/svg" xmlns:xlink="http://www.w3.org/1999/xlink">
    <!-- Generator: Sketch 60.1 (88133) - https://sketch.com -->
    <title>Group</title>
    <desc>Created with Sketch.</desc>
    <g id="Page-1" stroke="none" stroke-width="1" fill="none" fill-rule="evenodd">
        <g id="Artboard-Copy" transform="translate(-140.000000, -545.000000)">
            <g id="Group" transform="translate(140.880222, 545.000000)">
                <path d="M10.918013,73.3189121 L431.119778,60.9881026 C435.311149,62.2288741 437.932106,62.2288741 438.982649,60.9881026 C438.982649,54.9806989 437.226516,46.9672751 433.71425,36.9478313 C364.009056,12.3159438 293.940409,-3.55271368e-14 223.508308,-3.55271368e-14 C153.076207,-3.55271368e-14 84.7533075,10.1646838 18.5396094,30.4940513 C12.8878113,31.5807903 8.83234754,35.0339191 6.37321804,40.8534376 C2.6845238,49.5827154 0.600043914,66.2419439 0.119778401,69.3029505 C-0.530850052,73.4497775 3.06856149,74.7884313 10.918013,73.3189121 Z" id="Path-4-Copy" fill="#E4B989"></path>
                <path d="M6.1197784,84 L431.119778,84 C437.637818,81.2940563 440.896837,76.3950398 440.896837,69.3029505 C440.896837,62.2108613 437.637818,55.1098778 431.119778,48 C363.144232,24 293.940409,12 223.508308,12 C153.076207,12 83.0469148,24 13.4204313,48 C5.20395782,57.3063967 0.770406854,64.4073802 0.119778401,69.3029505 C-0.530850052,74.1985208 1.46914995,79.0975373 6.1197784,84 Z" id="Path-4" fill="#F3DAB6"></path>
                <ellipse id="Oval" fill="#65271B" transform="translate(74.619778, 56.500000) rotate(-10.000000) translate(-74.619778, -56.500000) " cx="74.6197784" cy="56.5" rx="19.5" ry="8.5"></ellipse>
                <ellipse id="Oval-Copy" fill="#65271B" cx="176.119778" cy="38" rx="13" ry="7"></ellipse>
                <ellipse id="Oval-Copy-2" fill="#65271B" cx="261.119778" cy="62" rx="13" ry="7"></ellipse>
                <ellipse id="Oval-Copy-3" fill="#65271B" transform="translate(337.119778, 38.500000) scale(1, -1) rotate(-11.000000) translate(-337.119778, -38.500000) " cx="337.119778" cy="38.5" rx="13" ry="5.5"></ellipse>
                <ellipse id="Oval-Copy-4" fill="#65271B" transform="translate(391.119778, 67.000000) scale(1, -1) translate(-391.119778, -67.000000) " cx="391.119778" cy="67" rx="13" ry="7"></ellipse>
            </g>
        </g>
    </g>
</svg>